HIERARCHY
ROOT Hips
{
	OFFSET 0.000000 0.000000 0.000000
	CHANNELS 6 Xposition Yposition Zposition Zrotation Yrotation Xrotation 
	JOINT LHipJoint
	{
		OFFSET 0.000000 0.000000 0.000000
		CHANNELS 3 Zrotation Yrotation Xrotation
		JOINT LeftUpLeg
		{
			OFFSET 1.363060 -1.794630 0.839290
			CHANNELS 3 Zrotation Yrotation Xrotation
			JOINT LeftLeg
			{
				OFFSET 2.448110 -6.726130 0.000000
				CHANNELS 3 Zrotation Yrotation Xrotation
				JOINT LeftFoot
				{
					OFFSET 2.562200 -7.039590 0.000000
					CHANNELS 3 Zrotation Yrotation Xrotation
					JOINT LeftToeBase
					{
						OFFSET 0.157640 -0.433110 2.322550
						CHANNELS 3 Zrotation Yrotation Xrotation
						End Site
						{
							OFFSET 0.000000 0.000000 0.000000
						}
					}
				}
			}
		}
	}
	JOINT RHipJoint
	{
		OFFSET 0.000000 0.000000 0.000000
		CHANNELS 3 Zrotation Yrotation Xrotation
		JOINT RightUpLeg
		{
			OFFSET -1.305520 -1.794630 0.839290
			CHANNELS 3 Zrotation Yrotation Xrotation
			JOINT RightLeg
			{
				OFFSET -2.542530 -6.985550 0.000000
				CHANNELS 3 Zrotation Yrotation Xrotation
				JOINT RightFoot
				{
					OFFSET -2.568260 -7.056230 0.000000
					CHANNELS 3 Zrotation Yrotation Xrotation
					JOINT RightToeBase
					{
						OFFSET -0.164730 -0.452590 2.363150
						CHANNELS 3 Zrotation Yrotation Xrotation
						End Site
						{
							OFFSET 0.000000 0.000000 0.000000
						}
					}
				}
			}
		}
	}
	JOINT LowerBack
	{
		OFFSET 0.000000 0.000000 0.000000
		CHANNELS 3 Zrotation Yrotation Xrotation
		JOINT Spine
		{
			OFFSET 0.028270 2.035590 -0.193380
			CHANNELS 3 Zrotation Yrotation Xrotation
			JOINT Spine1
			{
				OFFSET 0.056720 2.048850 -0.042750
				CHANNELS 3 Zrotation Yrotation Xrotation
				JOINT Neck
				{
					OFFSET 0.000000 0.000000 0.000000
					CHANNELS 3 Zrotation Yrotation Xrotation
					JOINT Neck1
					{
						OFFSET -0.054170 1.746240 0.172020
						CHANNELS 3 Zrotation Yrotation Xrotation
						JOINT Head
						{
							OFFSET 0.104070 1.761360 -0.123970
							CHANNELS 3 Zrotation Yrotation Xrotation
							End Site
							{
								OFFSET 0.000000 0.000000 0.000000
							}
						}
					}
				}
				JOINT LeftShoulder
				{
					OFFSET 0.000000 0.000000 0.000000
					CHANNELS 3 Zrotation Yrotation Xrotation
					JOINT LeftArm
					{
						OFFSET 3.362410 1.200890 -0.311210
						CHANNELS 3 Zrotation Yrotation Xrotation
						JOINT LeftForeArm
						{
							OFFSET 4.983000 -0.000000 -0.000000
							CHANNELS 3 Zrotation Yrotation Xrotation
							JOINT LeftHand
							{
								OFFSET 3.483560 -0.000000 -0.000000
								CHANNELS 3 Zrotation Yrotation Xrotation
								JOINT LeftFingerBase
								{
									OFFSET 0.000000 0.000000 0.000000
									CHANNELS 3 Zrotation Yrotation Xrotation
									JOINT LeftHandIndex1
									{
										OFFSET 0.715260 -0.000000 -0.000000
										CHANNELS 3 Zrotation Yrotation Xrotation
										End Site
										{
											OFFSET 0.000000 0.000000 0.000000
										}
									}
								}
								JOINT LThumb
								{
									OFFSET 0.000000 0.000000 0.000000
									CHANNELS 3 Zrotation Yrotation Xrotation
									End Site
									{
										OFFSET 0.000000 0.000000 0.000000
									}
								}
							}
						}
					}
				}
				JOINT RightShoulder
				{
					OFFSET 0.000000 0.000000 0.000000
					CHANNELS 3 Zrotation Yrotation Xrotation
					JOINT RightArm
					{
						OFFSET -3.136600 1.374050 -0.404650
						CHANNELS 3 Zrotation Yrotation Xrotation
						JOINT RightForeArm
						{
							OFFSET -5.241900 -0.000000 -0.000000
							CHANNELS 3 Zrotation Yrotation Xrotation
							JOINT RightHand
							{
								OFFSET -3.444170 -0.000000 -0.000000
								CHANNELS 3 Zrotation Yrotation Xrotation
								JOINT RightFingerBase
								{
									OFFSET 0.000000 0.000000 0.000000
									CHANNELS 3 Zrotation Yrotation Xrotation
									JOINT RightHandIndex1
									{
										OFFSET -0.622530 -0.000000 -0.000000
										CHANNELS 3 Zrotation Yrotation Xrotation
										End Site
										{
											OFFSET 0.000000 0.000000 0.000000
										}
									}
								}
								JOINT RThumb
								{
									OFFSET 0.000000 0.000000 0.000000
									CHANNELS 3 Zrotation Yrotation Xrotation
									End Site
									{
										OFFSET 0.000000 0.000000 0.000000
									}
								}
							}
						}
					}
				}
			}
		}
	}
}
MOTION
Frames: 6
Frame Time: 0.008333
0.747833 17.864891 -19.549620 1.370403 0.469760 1.485510 -1.554141 5.624758 5.349324 -21.636424 -5.556209 -8.936259 -0.044360 5.674693 23.094240 0.466905 -0.619885 -2.326531 0.015683 -0.800491 -2.200056 0.712414 -3.883992 2.885166 17.512771 7.777529 -35.200606 -5.587531 -13.677995 44.546852 1.982450 -8.555274 4.058223 -0.002281 -0.301148 0.827433 -3.527896 -1.718567 5.259604 4.260570 -2.368304 4.673703 4.395210 -1.200487 -7.510551 -5.677152 -3.655246 -16.294662 3.559844 -3.855040 15.385871 0.078099 -1.633274 8.320897 -7.147001 2.518760 -1.172837 -76.141156 -0.570293 31.397606 16.957004 -27.578803 -4.370741 -0.333436 -0.939162 -4.535241 27.761775 29.864462 15.319850 -7.125000 0.000000 0.000000 -4.098074 63.965632 -1.886798 11.163405 -2.050528 -2.803209 72.836117 -4.535315 14.341036 -11.448796 24.042618 -3.041892 0.893602 -0.205135 3.963369 -14.209701 18.077576 -4.809279 7.125000 0.000000 0.000000 8.479140 -11.380841 6.715013
0.748828 17.861598 -19.455493 1.450371 0.565931 1.516844 -1.576907 5.643400 5.395327 -21.751173 -5.527543 -8.555603 -0.061355 5.609827 22.963044 0.422495 -0.445604 -2.510918 0.015862 -0.809397 -2.224455 0.777678 -3.852940 2.838622 17.383477 7.678310 -35.282614 -5.137287 -13.308394 42.913449 2.088231 -8.897290 4.268889 -0.001166 -0.203789 0.559925 -3.560401 -1.738307 5.282641 4.227480 -2.394035 4.728273 4.392092 -1.219620 -7.483463 -5.628533 -3.697868 -16.407700 3.566088 -3.914388 15.374338 0.064931 -1.657280 8.335412 -7.138839 2.513302 -1.168643 -75.947527 -0.883049 31.601618 17.008750 -27.640420 -4.406436 -0.338360 -0.886318 -4.613386 27.752860 27.365825 14.169777 -7.125000 0.000000 0.000000 -3.031292 61.254210 -1.317169 11.159107 -2.052908 -2.806762 72.900282 -4.557683 14.203021 -11.454045 24.050273 -3.046103 0.890145 -0.207360 3.947044 -14.104072 18.104693 -4.780916 7.125000 0.000000 0.000000 8.551295 -11.361201 6.776966
0.749708 17.859602 -19.362486 1.548303 0.660284 1.521798 -1.600553 5.665208 5.445375 -21.890975 -5.468178 -8.142451 -0.078851 5.540084 22.822709 0.364230 -0.218927 -2.723104 0.019300 -0.895826 -2.462127 0.845621 -3.824260 2.793123 17.228612 7.571634 -35.315744 -4.685936 -12.924112 41.257403 2.195142 -9.239225 4.463607 -0.000300 -0.102749 0.282334 -3.598134 -1.750160 5.354237 4.175435 -2.411226 4.795529 4.383164 -1.234051 -7.478210 -5.536134 -3.748144 -16.601534 3.535993 -3.980915 15.414019 0.033320 -1.683950 8.377107 -7.128803 2.510896 -1.163067 -75.746792 -1.220397 31.815298 17.040433 -27.671835 -4.439925 -0.354968 -0.799370 -4.680727 27.981898 23.117391 12.308254 -7.125000 0.000000 0.000000 -1.103690 56.673610 -0.383568 11.152633 -2.054553 -2.809623 72.973037 -4.571883 14.090678 -11.467782 24.071092 -3.055123 0.885381 -0.205788 3.874245 -13.972791 18.069311 -4.727029 7.125000 0.000000 0.000000 8.639648 -11.410223 6.839862
0.750876 17.861876 -19.265441 1.639472 0.785032 1.558671 -1.624816 5.684146 5.489829 -22.016643 -5.499318 -7.709793 -0.104226 5.460198 22.647105 0.287888 0.062704 -2.898875 0.016041 -0.814576 -2.238797 0.919880 -3.797126 2.748574 17.050142 7.449354 -35.316915 -4.239261 -12.511665 39.570867 2.307972 -9.587870 4.570538 -0.000300 0.032011 -0.087872 -3.668282 -1.816389 5.327146 4.196845 -2.500957 4.783361 4.437129 -1.281262 -7.456040 -5.573370 -3.691162 -16.441516 3.506454 -3.909179 15.276334 0.038548 -1.660270 8.310249 -7.116090 2.494910 -1.151020 -75.605559 -1.426148 31.977379 17.015834 -27.584501 -4.474946 -0.414810 -0.585059 -4.792113 28.700812 11.769212 6.548376 -7.125000 0.000000 0.000000 1.158633 43.879874 -0.458175 11.152575 -2.067746 -2.823786 72.923416 -4.690775 14.252358 -11.468413 24.080668 -3.060784 0.882946 -0.182701 3.699311 -13.972602 17.653225 -4.616441 7.125000 0.000000 0.000000 8.632267 -11.851592 6.754307
0.751053 17.865194 -19.168770 1.717082 0.879492 1.640402 -1.651250 5.697621 5.528054 -22.120219 -5.551198 -7.336609 -0.133556 5.379685 22.458764 0.207265 0.356359 -3.048484 0.016155 -0.816446 -2.243994 0.997576 -3.767525 2.702454 16.858968 7.416450 -35.309606 -3.793474 -12.079649 37.865081 2.415988 -9.905534 4.564260 -0.002764 -0.089390 0.245734 -3.760950 -1.890914 5.275215 4.252243 -2.602615 4.753842 4.521371 -1.333236 -7.430883 -5.635303 -3.619294 -16.292784 3.473456 -3.809077 15.144860 0.050069 -1.625049 8.248025 -7.113299 2.478566 -1.144263 -75.514253 -1.622379 32.017559 17.048245 -27.614499 -4.498734 -0.420350 -0.545900 -4.832678 28.660634 9.779570 5.487464 -7.125000 0.000000 0.000000 1.457898 41.619333 -0.447841 11.154329 -2.077570 -2.835933 72.838667 -4.814325 14.469910 -11.472930 24.098153 -3.068002 0.880535 -0.161761 3.547129 -13.969173 17.280189 -4.516055 7.125000 0.000000 0.000000 8.628421 -12.248000 6.679516
0.749947 17.869864 -19.072585 1.777108 0.934673 1.780309 -1.680499 5.704013 5.558199 -22.195143 -5.629976 -7.040554 -0.168014 5.298356 22.253905 0.121089 0.665604 -3.164164 0.020645 -0.926111 -2.545559 1.079728 -3.734726 2.654297 16.651320 7.499458 -35.291300 -3.348837 -11.622255 36.134331 2.517763 -10.183020 4.411165 -0.008422 -0.542998 1.492097 -3.882824 -1.976196 5.191070 4.351722 -2.719740 4.701822 4.644879 -1.391387 -7.401854 -5.729262 -3.528120 -16.158689 3.435970 -3.672186 15.021442 0.069751 -1.574860 8.191808 -7.123375 2.461761 -1.144365 -75.487696 -1.806262 31.899649 17.154592 -27.796663 -4.507953 -0.355464 -0.733890 -4.781399 27.636009 19.926783 10.520522 -7.125000 0.000000 0.000000 -0.788680 53.019029 -0.327351 11.158433 -2.083022 -2.845467 72.708365 -4.943913 14.759922 -11.482486 24.125896 -3.077238 0.878157 -0.143603 3.424453 -13.961542 16.962984 -4.428901 7.125000 0.000000 0.000000 8.629159 -12.586100 6.618687
